<?xml version="1.0"?>
<svg xmlns="http://www.w3.org/2000/svg" xmlns:xlink="http://www.w3.org/1999/xlink" xmlns:svgjs="http://svgjs.com/svgjs" version="1.1" width="512" height="512" x="0" y="0" viewBox="0 0 512 512" style="enable-background:new 0 0 512 512" xml:space="preserve"><g><path xmlns="http://www.w3.org/2000/svg" d="M488,64H464V56a8,8,0,0,0-8-8H400V40a24,24,0,0,0-48,0v8H336V40a24,24,0,0,0-48,0v8H192V40a24,24,0,0,0-48,0v8H128V40a24,24,0,0,0-48,0v8H24a8,8,0,0,0-8,8V456a8,8,0,0,0,8,8h8v24a8,8,0,0,0,8,8H488a8,8,0,0,0,8-8V72A8,8,0,0,0,488,64ZM32,448V160H448V448ZM368,40a8,8,0,0,1,16,0v8H368Zm-64,0a8,8,0,0,1,16,0v8H304ZM160,40a8,8,0,0,1,16,0v8H160ZM96,40a8,8,0,0,1,16,0v8H96ZM80,64v8a24.028,24.028,0,0,0,24,24,8,8,0,0,0,0-16,8.009,8.009,0,0,1-8-8V64h48v8a24.028,24.028,0,0,0,24,24,8,8,0,0,0,0-16,8.009,8.009,0,0,1-8-8V64H288v8a24.028,24.028,0,0,0,24,24,8,8,0,0,0,0-16,8.009,8.009,0,0,1-8-8V64h48v8a24.028,24.028,0,0,0,24,24,8,8,0,0,0,0-16,8.009,8.009,0,0,1-8-8V64h80v80H32V64ZM480,480H48V464H456a8,8,0,0,0,8-8V80h16Z" fill="#00bd62" data-original="#000000" style=""/><path xmlns="http://www.w3.org/2000/svg" d="M176,344a47.994,47.994,0,0,0-21.493-40A47.994,47.994,0,1,0,80,264a8,8,0,0,0,16,0,32,32,0,1,1,32,32,8,8,0,0,0,0,16,32,32,0,1,1-32,32,8,8,0,0,0-16,0,48,48,0,0,0,96,0Z" fill="#00bd62" data-original="#000000" style=""/><path xmlns="http://www.w3.org/2000/svg" d="M352,296H328V232h56a8,8,0,0,0,0-16H320a8,8,0,0,0-8,8v80a8,8,0,0,0,8,8h32a32,32,0,1,1-32,32,8,8,0,0,0-16,0,48,48,0,1,0,48-48Z" fill="#00bd62" data-original="#000000" style=""/><path xmlns="http://www.w3.org/2000/svg" d="M240,232a32.036,32.036,0,0,1,32,32,8,8,0,0,0,16,0,48,48,0,0,0-96,0v80a48.069,48.069,0,1,0,16-35.739V264A32.036,32.036,0,0,1,240,232Zm0,80a32,32,0,1,1-32,32A32.036,32.036,0,0,1,240,312Z" fill="#00bd62" data-original="#000000" style=""/></g></svg>
