<?xml version="1.0"?>
<svg xmlns="http://www.w3.org/2000/svg" xmlns:xlink="http://www.w3.org/1999/xlink" xmlns:svgjs="http://svgjs.com/svgjs" version="1.1" width="512" height="512" x="0" y="0" viewBox="0 0 511 511" style="enable-background:new 0 0 512 512" xml:space="preserve" class=""><g><g xmlns="http://www.w3.org/2000/svg" id="Outline_20_"><g><path d="m191.5 327h224c4.143 0 7.5-3.358 7.5-7.5v-176c0-2.301-1.057-4.476-2.866-5.897l-112-88c-2.721-2.137-6.547-2.137-9.268 0l-112 88c-1.81 1.422-2.866 3.596-2.866 5.897v176c0 4.142 3.357 7.5 7.5 7.5zm79.5-15v-113h65v113zm-72-164.854 104.5-82.107 104.5 82.107v164.854h-57v-120.5c0-4.142-3.357-7.5-7.5-7.5h-80c-4.143 0-7.5 3.358-7.5 7.5v120.5h-57z" fill="#00bd62" data-original="#000000" style="" class=""/><path d="m463.5 312c-4.143 0-7.5 3.358-7.5 7.5s3.357 7.5 7.5 7.5h32c4.143 0 7.5-3.358 7.5-7.5s-3.357-7.5-7.5-7.5h-8.5v-249h8.5c4.143 0 7.5-3.358 7.5-7.5s-3.357-7.5-7.5-7.5h-32c-4.143 0-7.5 3.358-7.5 7.5s3.357 7.5 7.5 7.5h8.5v249z" fill="#00bd62" data-original="#000000" style="" class=""/><path d="m503.5 384h-88c-4.143 0-7.5 3.358-7.5 7.5s3.357 7.5 7.5 7.5h80.5v97h-41v-24.5c0-4.142-3.357-7.5-7.5-7.5s-7.5 3.358-7.5 7.5v24.5h-49v-32.5c0-4.142-3.357-7.5-7.5-7.5s-7.5 3.358-7.5 7.5v32.5h-49v-24.5c0-4.142-3.357-7.5-7.5-7.5s-7.5 3.358-7.5 7.5v24.5h-49v-32.5c0-4.142-3.357-7.5-7.5-7.5s-7.5 3.358-7.5 7.5v32.5h-49v-24.5c0-4.142-3.357-7.5-7.5-7.5s-7.5 3.358-7.5 7.5v24.5h-49v-32.5c0-4.142-3.357-7.5-7.5-7.5s-7.5 3.358-7.5 7.5v32.5h-49v-24.5c0-4.142-3.357-7.5-7.5-7.5s-7.5 3.358-7.5 7.5v24.5h-41v-41.025c.166.011.331.025.5.025h24c4.143 0 7.5-3.358 7.5-7.5s-3.357-7.5-7.5-7.5h-24c-.169 0-.334.014-.5.025v-49.05c.166.011.331.025.5.025h40c4.143 0 7.5-3.358 7.5-7.5s-3.357-7.5-7.5-7.5h-40c-.169 0-.334.014-.5.025v-49.05c.166.011.331.025.5.025h24c4.143 0 7.5-3.358 7.5-7.5s-3.357-7.5-7.5-7.5h-24c-.169 0-.334.014-.5.025v-49.05c.166.011.331.025.5.025h40c4.143 0 7.5-3.358 7.5-7.5s-3.357-7.5-7.5-7.5h-40c-.169 0-.334.014-.5.025v-49.05c.166.011.331.025.5.025h24c4.143 0 7.5-3.358 7.5-7.5s-3.357-7.5-7.5-7.5h-24c-.169 0-.334.014-.5.025v-49.05c.166.011.331.025.5.025h40c4.143 0 7.5-3.358 7.5-7.5s-3.357-7.5-7.5-7.5h-40c-.169 0-.334.014-.5.025v-49.05c.166.011.331.025.5.025h24c4.143 0 7.5-3.358 7.5-7.5s-3.357-7.5-7.5-7.5h-24c-.169 0-.334.014-.5.025v-41.025h97v376.5c0 4.142 3.357 7.5 7.5 7.5h259.435c4.143 0 7.5-3.358 7.5-7.5s-3.357-7.5-7.5-7.5h-251.935v-376.5c0-4.142-3.357-7.5-7.5-7.5h-112c-4.143 0-7.5 3.358-7.5 7.5v496c0 4.142 3.357 7.5 7.5 7.5h496c4.143 0 7.5-3.358 7.5-7.5v-112c0-4.142-3.357-7.5-7.5-7.5z" fill="#00bd62" data-original="#000000" style="" class=""/></g></g></g></svg>
