<!DOCTYPE svg PUBLIC "-//W3C//DTD SVG 1.1//EN" "http://www.w3.org/Graphics/SVG/1.1/DTD/svg11.dtd">
<!-- Uploaded to: SVG Repo, www.svgrepo.com, Transformed by: SVG Repo Mixer Tools -->
<svg height="64px" width="64px" version="1.1" id="Layer_1" xmlns="http://www.w3.org/2000/svg" xmlns:xlink="http://www.w3.org/1999/xlink" viewBox="-40.96 -40.96 593.92 593.92" xml:space="preserve" fill="#000000">
<g id="SVGRepo_bgCarrier" stroke-width="0"/>
<g id="SVGRepo_tracerCarrier" stroke-linecap="round" stroke-linejoin="round"/>
<g id="SVGRepo_iconCarrier"> <path style="fill:#806749;" d="M485.517,308.966h-26.483H256H52.966H26.483C11.857,308.966,0,297.108,0,282.483v123.586v70.621 c0,14.626,11.857,26.483,26.483,26.483s26.483-11.857,26.483-26.483v-44.138H256h203.034v44.138 c0,14.626,11.857,26.483,26.483,26.483S512,491.315,512,476.69v-70.621V282.483C512,297.108,500.143,308.966,485.517,308.966z"/> <path style="fill:#852930;" d="M485.517,150.069h-61.793h-26.483h-26.483H256H141.241h-26.483H88.276H26.483 C11.857,150.069,0,161.926,0,176.552v105.931c0,14.626,11.857,26.483,26.483,26.483h26.483H256h203.034h26.483 c14.626,0,26.483-11.857,26.483-26.483V176.552C512,161.926,500.143,150.069,485.517,150.069z"/> <path style="fill:#D6D5D8;" d="M397.241,8.828H256H114.759c-14.626,0-26.483,11.857-26.483,26.483v114.759h26.483h26.483H256 h114.759h26.483h26.483V35.31C423.724,20.685,411.867,8.828,397.241,8.828z"/> <path style="fill:#806749;" d="M52.966,308.966H26.483C11.857,308.966,0,297.108,0,282.483v123.586v70.621 c0,14.626,11.857,26.483,26.483,26.483s26.483-11.857,26.483-26.483v-44.138H256V308.966H52.966z"/> <path style="fill:#D6D5D8;" d="M141.241,150.069H256V8.828H114.759c-14.626,0-26.483,11.857-26.483,26.483v114.759h26.483H141.241z"/> <path style="fill:#852930;" d="M26.483,308.966h26.483H256V150.069H141.241h-26.483H88.276H26.483 C11.857,150.069,0,161.926,0,176.552v105.931C0,297.108,11.857,308.966,26.483,308.966z"/> </g>
</svg>