<!DOCTYPE svg PUBLIC "-//W3C//DTD SVG 1.1//EN" "http://www.w3.org/Graphics/SVG/1.1/DTD/svg11.dtd">
<!-- Uploaded to: SVG Repo, www.svgrepo.com, Transformed by: SVG Repo Mixer Tools -->
<svg version="1.1" id="Capa_1" xmlns="http://www.w3.org/2000/svg" xmlns:xlink="http://www.w3.org/1999/xlink" viewBox="0 0 297 297" xml:space="preserve" width="64px" height="64px" fill="#000000">
<g id="SVGRepo_bgCarrier" stroke-width="0"/>
<g id="SVGRepo_tracerCarrier" stroke-linecap="round" stroke-linejoin="round"/>
<g id="SVGRepo_iconCarrier"> <g> <g> <path style="fill:#852930;" d="M231,12.75h-82.5c-31.43,0-57,25.57-57,57v115.5c0,4.143,3.357,7.5,7.5,7.5s7.5-3.357,7.5-7.5 v-25.5H174v25.5c0,4.143,3.357,7.5,7.5,7.5s7.5-3.357,7.5-7.5V69.75c0-23.159,18.841-42,42-42s42,18.841,42,42 c0,4.143,3.357,7.5,7.5,7.5s7.5-3.357,7.5-7.5C288,38.32,262.43,12.75,231,12.75z M174,111.75h-67.5v-18H174V111.75z M106.5,144.75v-18H174v18H106.5z M174,69.75v9h-67.5v-9c0-23.159,18.841-42,42-42h44.011C181.142,38.177,174,53.144,174,69.75z"/> </g> <g style="opacity:0.7;"> <g> <rect x="100.5" y="126.75" style="fill:#6f2f2f;" width="6" height="18"/> </g> <g> <rect x="100.5" y="93.75" style="fill:#6f2f2f;" width="6" height="18"/> </g> <g> <path style="fill:#6f2f2f;" d="M100.5,69.75v9h6v-9c0-23.159,18.841-42,42-42h-6C119.341,27.75,100.5,46.591,100.5,69.75z"/> </g> <g> <path style="fill:#6f2f2f;" d="M100.5,185.25c0,3.075-1.852,5.714-4.5,6.872c0.919,0.402,1.933,0.628,3,0.628 c4.143,0,7.5-3.357,7.5-7.5v-25.5h-6V185.25z"/> </g> <g> <path style="fill:#6f2f2f;" d="M231,12.75h-6c31.43,0,57,25.57,57,57c0,3.075-1.852,5.714-4.5,6.872 c0.919,0.402,1.933,0.628,3,0.628c4.143,0,7.5-3.357,7.5-7.5C288,38.32,262.43,12.75,231,12.75z"/> </g> <g> <path style="fill:#6f2f2f;" d="M225,27.75c-23.159,0-42,18.841-42,42v115.5c0,3.075-1.852,5.714-4.5,6.872 c0.919,0.402,1.933,0.628,3,0.628c4.143,0,7.5-3.357,7.5-7.5V69.75c0-22.149,17.237-40.336,39-41.881 C227.008,27.799,226.01,27.75,225,27.75z"/> </g> </g> <g> <g> <path style="fill:#86cefe;" d="M267.301,230.25c-6.54,0-9.62,1.659-13.187,3.581c-3.844,2.071-8.2,4.419-16.506,4.419 c-8.308,0-12.664-2.348-16.509-4.419c-3.566-1.922-6.646-3.581-13.188-3.581s-9.622,1.659-13.188,3.581 c-3.845,2.071-8.201,4.419-16.509,4.419s-12.665-2.348-16.51-4.419c-3.567-1.921-6.647-3.581-13.19-3.581 s-9.623,1.66-13.19,3.581c-3.845,2.071-8.202,4.419-16.51,4.419c-8.309,0-12.667-2.348-16.512-4.419 c-3.567-1.922-6.648-3.581-13.19-3.581s-9.623,1.659-13.19,3.581c-3.845,2.071-8.203,4.419-16.512,4.419 s-12.667-2.348-16.513-4.419c-3.567-1.921-6.648-3.581-13.192-3.581s-9.625,1.66-13.192,3.581 C12.667,235.902,8.309,238.25,0,238.25c0,8.706,0,10.325,0,17.5c6.544,0,9.625-1.66,13.192-3.581 c3.846-2.071,8.204-4.419,16.513-4.419s12.667,2.348,16.513,4.419c3.567,1.921,6.648,3.581,13.192,3.581 c6.543,0,9.624-1.66,13.191-3.581c3.845-2.071,8.203-4.419,16.511-4.419s12.666,2.348,16.511,4.419 c3.567,1.921,6.648,3.581,13.191,3.581c6.542,0,9.622-1.659,13.189-3.581c3.845-2.071,8.202-4.419,16.511-4.419 s12.666,2.348,16.511,4.419c3.567,1.922,6.647,3.581,13.189,3.581c6.541,0,9.622-1.659,13.188-3.581 c3.845-2.071,8.201-4.419,16.509-4.419c8.307,0,12.664,2.348,16.508,4.419c3.566,1.922,6.646,3.581,13.188,3.581 c6.54,0,9.619-1.659,13.186-3.581c3.844-2.071,8.2-4.419,16.507-4.419c8.308,0,12.665,2.348,16.51,4.419 c3.566,1.922,6.647,3.581,13.189,3.581c0-7.175,0-8.794,0-17.5c-8.308,0-12.665-2.348-16.51-4.419 C276.924,231.909,273.843,230.25,267.301,230.25z"/> </g> <g> <path style="fill:#86cefe;" d="M267.301,254.75c-6.54,0-9.62,1.659-13.187,3.581c-3.844,2.071-8.2,4.419-16.506,4.419 c-8.308,0-12.664-2.348-16.509-4.419c-3.566-1.922-6.646-3.581-13.188-3.581s-9.622,1.659-13.188,3.581 c-3.845,2.071-8.201,4.419-16.509,4.419s-12.665-2.348-16.51-4.419c-3.567-1.921-6.647-3.581-13.19-3.581 s-9.623,1.66-13.19,3.581c-3.845,2.071-8.202,4.419-16.51,4.419c-8.309,0-12.667-2.348-16.512-4.419 c-3.567-1.922-6.648-3.581-13.19-3.581s-9.623,1.659-13.19,3.581c-3.845,2.071-8.203,4.419-16.512,4.419 s-12.667-2.348-16.513-4.419c-3.567-1.921-6.648-3.581-13.192-3.581s-9.625,1.66-13.192,3.581 C12.667,260.402,8.309,262.75,0,262.75c0,7.31,0,21.5,0,21.5h297c0,0,0-14.19,0-21.5c-8.308,0-12.665-2.348-16.51-4.419 C276.924,256.409,273.843,254.75,267.301,254.75z"/> </g> <g> <path style="fill:#86cefe;" d="M267.301,205.25c-6.54,0-9.62,1.659-13.187,3.581c-3.844,2.071-8.2,4.419-16.506,4.419 c-8.308,0-12.664-2.348-16.509-4.419c-3.566-1.922-6.646-3.581-13.188-3.581s-9.622,1.659-13.188,3.581 c-3.845,2.071-8.201,4.419-16.509,4.419s-12.665-2.348-16.51-4.419c-3.567-1.921-6.647-3.581-13.19-3.581 s-9.623,1.66-13.19,3.581c-3.845,2.071-8.202,4.419-16.51,4.419c-8.309,0-12.667-2.348-16.512-4.419 c-3.567-1.922-6.648-3.581-13.19-3.581s-9.623,1.659-13.19,3.581c-3.845,2.071-8.203,4.419-16.512,4.419 s-12.667-2.348-16.513-4.419c-3.567-1.921-6.648-3.581-13.192-3.581s-9.625,1.66-13.192,3.581 C12.667,210.902,8.309,213.25,0,213.25c0,7.302,0,9.045,0,18c6.544,0,9.625-1.66,13.192-3.581 c3.846-2.071,8.204-4.419,16.513-4.419s12.667,2.348,16.513,4.419c3.567,1.921,6.648,3.581,13.192,3.581 c6.543,0,9.624-1.66,13.191-3.581c3.845-2.071,8.203-4.419,16.511-4.419s12.666,2.348,16.511,4.419 c3.567,1.921,6.648,3.581,13.191,3.581c6.542,0,9.622-1.659,13.189-3.581c3.845-2.071,8.202-4.419,16.511-4.419 s12.666,2.348,16.511,4.419c3.567,1.922,6.647,3.581,13.189,3.581c6.541,0,9.622-1.659,13.188-3.581 c3.845-2.071,8.201-4.419,16.509-4.419c8.307,0,12.664,2.348,16.508,4.419c3.566,1.922,6.646,3.581,13.188,3.581 c6.54,0,9.619-1.659,13.186-3.581c3.844-2.071,8.2-4.419,16.507-4.419c8.308,0,12.665,2.348,16.51,4.419 c3.566,1.922,6.647,3.581,13.189,3.581c0-8.955,0-10.698,0-18c-8.308,0-12.665-2.348-16.51-4.419 C276.924,206.909,273.843,205.25,267.301,205.25z"/> </g> <g> <path style="fill:#86cefe;" d="M267.301,177.25c-14.846,0-14.846,8-29.693,8c-14.848,0-14.848-8-29.696-8 c-14.848,0-14.848,8-29.697,8c-14.85,0-14.85-8-29.7-8c-14.85,0-14.85,8-29.701,8c-14.851,0-14.851-8-29.702-8 c-14.851,0-14.851,8-29.701,8c-14.853,0-14.853-8-29.705-8s-14.853,8-29.705,8c0,0,0,13.981,0,21 c6.544,0,9.625-1.66,13.192-3.581c3.846-2.071,8.204-4.419,16.513-4.419s12.667,2.348,16.513,4.419 c3.567,1.921,6.648,3.581,13.192,3.581c6.543,0,9.624-1.66,13.191-3.581c3.845-2.071,8.203-4.419,16.511-4.419 s12.666,2.348,16.511,4.419c3.567,1.921,6.648,3.581,13.191,3.581c6.542,0,9.622-1.659,13.189-3.581 c3.845-2.071,8.202-4.419,16.511-4.419s12.666,2.348,16.511,4.419c3.567,1.922,6.647,3.581,13.189,3.581 c6.541,0,9.622-1.659,13.188-3.581c3.845-2.071,8.201-4.419,16.509-4.419c8.307,0,12.664,2.348,16.508,4.419 c3.566,1.922,6.646,3.581,13.188,3.581c6.54,0,9.619-1.659,13.186-3.581c3.844-2.071,8.2-4.419,16.507-4.419 c8.308,0,12.665,2.348,16.51,4.419c3.566,1.922,6.647,3.581,13.189,3.581c0-7.019,0-21,0-21 C282.15,185.25,282.15,177.25,267.301,177.25z"/> </g> </g> </g> </g>
</svg>